<?xml version="1.0" encoding="UTF-8" standalone="no"?>
<!DOCTYPE svg PUBLIC "-//W3C//DTD SVG 1.1//EN" "http://www.w3.org/Graphics/SVG/1.1/DTD/svg11.dtd">
<svg width="100%" height="100%" viewBox="0 0 1024 768" version="1.1" xmlns="http://www.w3.org/2000/svg" xmlns:xlink="http://www.w3.org/1999/xlink" xml:space="preserve" xmlns:serif="http://www.serif.com/" style="fill-rule:evenodd;clip-rule:evenodd;stroke-linecap:round;stroke-linejoin:round;stroke-miterlimit:1.5;">
    <path d="M418.5,235.75C418.5,197.254 387.246,166 348.75,166L209.25,166C170.754,166 139.5,197.254 139.5,235.75L139.5,405.25C139.5,443.746 170.754,475 209.25,475L348.75,475C387.246,475 418.5,443.746 418.5,405.25L418.5,235.75Z" style="fill:rgb(235,235,235);"/>
    <g id="Layer1">
        <g transform="matrix(1,0,0,1,-21,-6)">
            <ellipse className="eyes" cx="0" cy="0" rx="10.5" ry="68.5" style="fill:rgb(207,23,23);"/>
        </g>
        <g transform="matrix(1,0,0,1,93,-6)">
            <ellipse class="eyes" cx="242" cy="286.5" rx="10.5" ry="68.5" style="fill:rgb(207,23,23);"/>
        </g>
    </g>
    <g transform="matrix(1,0,0,1,-249,-127)">
        <path d="M526.5,294C526.5,294 570.5,208 648.5,227" style="fill:none;stroke:black;stroke-width:14.69px;"/>
    </g>
    <g transform="matrix(1,0,0,1,79,15)">
        <circle cx="326.25" cy="84.75" r="27.75" style="fill:rgb(143,245,124);"/>
    </g>
</svg>
