<?xml version="1.0" encoding="UTF-8" standalone="no"?>
<!DOCTYPE svg PUBLIC "-//W3C//DTD SVG 1.1//EN" "http://www.w3.org/Graphics/SVG/1.1/DTD/svg11.dtd">
<svg version="1.1" xmlns="http://www.w3.org/2000/svg" xmlns:xlink="http://www.w3.org/1999/xlink" xml:space="preserve" xmlns:serif="http://www.serif.com/" style="fill-rule:evenodd;clip-rule:evenodd;stroke-linecap:round;stroke-linejoin:round;stroke-miterlimit:1.5;">
    <g transform="matrix(1,0,0,1,-139.5,-72)">
        <path d="M418.5,235.75C418.5,197.254 387.246,166 348.75,166L209.25,166C170.754,166 139.5,197.254 139.5,235.75L139.5,405.25C139.5,443.746 170.754,475 209.25,475L348.75,475C387.246,475 418.5,443.746 418.5,405.25L418.5,235.75Z" style="fill:rgb(235,235,235);"/>
       <g className="pompom">
            <g transform="matrix(1,0,0,1,-249,-127)">
                <path d="M526.5,294C526.5,294 570.5,208 648.5,227" style="fill:none;stroke:black;stroke-width:14.69px;"/>
            </g>
            <g transform="matrix(1,0,0,1,79,15)">
                <circle cx="326.25" cy="84.75" r="27.75" style="fill:rgb(143,245,124);"/>
            </g>
        </g>
    </g>
</svg>
